<svg xmlns="http://www.w3.org/2000/svg" width="24" height="24" viewBox="0 0 24 24" fill="none" stroke="black" stroke-width="2" stroke-linecap="round" stroke-linejoin="round" class="lucide lucide-file-input">
  <path d="M4 22h14a2 2 0 0 0 2-2V7l-5-5H6a2 2 0 0 0-2 2v4"/>
  <path d="M14 2v4a2 2 0 0 0 2 2h4"/>
  
  <g style="transform-origin: center; transform: translate(-5px, 2.75px) scale(0.5)" stroke-width="3">
    <path d="M12 20a8 8 0 1 0 0-16 8 8 0 0 0 0 16Z"/>
    <path d="M12 14a2 2 0 1 0 0-4 2 2 0 0 0 0 4Z"/>
    <path d="M12 2v2"/>
    <path d="M12 22v-2"/>
    <path d="m17 20.66-1-1.73"/>
    <path d="M11 10.27 7 3.34"/>
    <path d="m20.66 17-1.73-1"/>
    <path d="m3.34 7 1.73 1"/>
    <path d="M14 12h8"/>
    <path d="M2 12h2"/>
    <path d="m20.66 7-1.73 1"/>
    <path d="m3.34 17 1.73-1"/>
    <path d="m17 3.34-1 1.73"/>
    <path d="m11 13.73-4 6.93"/>
  </g>
</svg>
